<?xml version="1.0" standalone="no"?>
<!DOCTYPE svg PUBLIC "-//W3C//DTD SVG 20010904//EN"
 "http://www.w3.org/TR/2001/REC-SVG-20010904/DTD/svg10.dtd">
<svg version="1.0" xmlns="http://www.w3.org/2000/svg"
 width="2048.000000pt" height="2048.000000pt" viewBox="0 0 2048.000000 2048.000000"
 preserveAspectRatio="xMidYMid meet">
<metadata>
Created by potrace 1.14, written by Peter Selinger 2001-2017
</metadata>
<g transform="translate(0.000000,2048.000000) scale(0.100000,-0.100000)"
fill="#000000" stroke="none">
<path d="M10440 17557 c-3 -2 -151 -7 -330 -10 -327 -6 -476 -15 -670 -42 -58
-7 -134 -16 -170 -20 -36 -3 -155 -17 -265 -31 -624 -77 -1486 -392 -2049
-749 -363 -229 -480 -319 -691 -530 -124 -124 -191 -202 -335 -390 -62 -81
-136 -172 -164 -203 -164 -181 -249 -295 -371 -502 -242 -407 -480 -935 -563
-1245 -30 -114 -79 -356 -91 -450 -18 -142 11 -201 97 -198 65 2 162 -20 289
-66 128 -47 195 -66 283 -81 36 -6 135 -27 220 -45 153 -33 788 -131 1030
-159 241 -28 265 -10 322 242 l23 102 40 11 c99 26 135 75 135 182 0 100 86
416 172 632 63 158 192 402 262 497 38 50 89 104 123 129 32 24 87 67 123 95
100 79 223 159 329 213 199 102 521 215 741 261 85 17 157 33 161 36 11 7 345
43 509 55 85 6 283 12 440 12 279 2 290 1 485 -31 352 -58 438 -70 520 -77
107 -8 207 -33 405 -100 91 -30 199 -62 240 -70 195 -40 298 -79 414 -159 35
-24 96 -56 135 -71 143 -54 347 -240 475 -433 129 -194 199 -371 246 -627 44
-235 37 -346 -32 -565 -35 -110 -216 -468 -283 -558 -72 -98 -183 -220 -238
-261 -76 -57 -269 -171 -362 -214 -189 -87 -683 -199 -1065 -241 -124 -14
-324 -36 -445 -50 -224 -25 -335 -34 -690 -61 -110 -8 -252 -22 -315 -30 -63
-8 -185 -21 -270 -30 -204 -21 -675 -81 -820 -105 -63 -10 -200 -31 -305 -45
-104 -14 -275 -44 -380 -66 -271 -57 -785 -193 -1030 -274 -92 -30 -329 -154
-410 -215 -44 -33 -111 -76 -150 -96 -118 -62 -203 -124 -460 -334 -33 -26
-96 -77 -140 -112 -249 -196 -615 -626 -773 -907 -156 -278 -223 -431 -301
-692 -110 -367 -135 -559 -135 -1044 -2 -908 28 -1259 138 -1640 38 -129 139
-383 213 -529 65 -130 155 -280 177 -294 16 -10 66 -79 66 -90 0 -41 448 -527
535 -581 17 -10 57 -44 90 -76 33 -32 103 -86 155 -120 126 -83 518 -292 654
-350 122 -53 615 -215 650 -215 13 0 52 -9 86 -20 110 -35 286 -61 785 -115
83 -9 215 -20 295 -25 80 -5 208 -14 285 -19 77 -6 293 -13 480 -17 l340 -6
235 31 c274 37 424 62 570 97 58 14 155 36 215 49 259 56 578 157 820 260 214
91 514 240 670 332 66 39 203 119 305 178 269 157 742 472 916 611 52 41 97
74 102 74 10 0 46 -89 87 -213 14 -43 36 -100 50 -126 26 -53 152 -247 228
-354 27 -37 83 -142 126 -234 71 -154 146 -296 176 -333 7 -8 15 -28 19 -43
11 -47 50 -56 211 -50 77 3 212 1 300 -5 144 -9 176 -15 317 -56 194 -56 239
-63 453 -72 207 -8 498 15 655 51 113 26 259 50 264 44 1 -2 29 -53 61 -114
459 -864 1046 -1588 1735 -2140 268 -214 639 -470 843 -579 70 -37 129 -72
132 -76 3 -5 10 -32 15 -62 23 -120 118 -117 128 5 3 40 -4 81 -27 163 -74
254 -152 775 -225 1504 -48 475 -67 797 -86 1500 -29 1075 -74 1670 -196 2605
-133 1027 -272 1695 -505 2440 -147 467 -266 770 -449 1135 -274 548 -510 867
-1081 1459 -143 150 -356 360 -472 468 -328 305 -475 453 -486 487 -6 17 -15
213 -21 436 -6 223 -13 416 -15 430 -3 14 -9 151 -14 305 -10 297 -24 393 -87
613 -42 146 -183 444 -399 846 -138 256 -191 322 -530 649 -250 241 -483 424
-671 529 -63 34 -156 87 -207 116 -50 29 -148 80 -217 113 -69 33 -201 98
-295 144 -135 67 -182 86 -230 91 -33 3 -96 19 -141 34 -44 16 -103 32 -130
35 -27 4 -101 27 -164 50 -515 191 -1021 309 -1472 345 -81 6 -167 18 -192 25
-48 15 -178 30 -186 22z m5120 -5285 c136 -286 171 -379 378 -1007 299 -906
386 -1210 551 -1930 99 -431 128 -575 199 -995 l49 -285 120 -195 c316 -514
498 -772 828 -1170 156 -188 179 -219 171 -227 -7 -7 -228 200 -357 336 -241
252 -485 576 -649 862 -39 68 -70 118 -70 113 0 -5 9 -72 20 -149 10 -77 35
-288 55 -470 92 -857 189 -1359 430 -2240 76 -278 102 -358 262 -820 132 -378
227 -610 439 -1064 37 -80 36 -104 -2 -56 -68 84 -333 584 -402 760 -133 334
-329 914 -393 1159 -51 195 -44 200 -79 -69 -26 -203 -72 -432 -111 -560 -33
-106 -83 -215 -99 -215 -13 0 -13 1 11 73 12 34 30 107 40 161 30 154 88 627
105 858 l16 208 -45 188 c-116 478 -199 1000 -287 1797 -45 408 -165 1173
-244 1562 -26 123 -192 836 -225 958 -15 57 -19 65 -24 45 -96 -401 -146 -565
-264 -875 -130 -339 -284 -681 -303 -670 -4 3 9 58 30 123 324 977 398 1229
460 1557 l22 120 -102 330 c-130 423 -415 1276 -481 1442 -28 70 -80 191 -117
268 l-66 140 -3 105 -4 105 21 -33 c11 -19 65 -127 120 -240z m-2617 -2134
c-2 -90 -8 -176 -13 -191 -7 -20 -6 -36 2 -50 7 -15 9 -65 3 -167 -4 -80 -5
-170 -4 -200 2 -30 3 -89 3 -130 -3 -132 -34 -593 -44 -640 -9 -42 -14 -102
-40 -492 -14 -215 -68 -421 -158 -603 -30 -62 -198 -326 -271 -426 -44 -61
-265 -321 -323 -379 -191 -194 -311 -296 -483 -413 -376 -255 -537 -354 -625
-386 -47 -16 -191 -74 -320 -127 -129 -53 -269 -105 -310 -115 -449 -110 -938
-189 -1165 -189 -104 0 -327 18 -495 40 -123 15 -297 30 -417 34 -62 3 -118 8
-124 12 -6 4 -47 10 -91 15 -52 5 -96 16 -123 31 -120 64 -170 92 -271 153
-60 36 -120 68 -134 71 -14 2 -59 21 -100 42 -65 32 -98 59 -251 212 -155 154
-183 186 -229 268 -81 145 -185 368 -214 460 -33 104 -76 392 -92 615 -9 117
11 257 43 304 46 68 64 114 68 177 3 61 32 140 54 148 20 7 131 164 177 249
53 100 92 143 208 232 43 33 122 96 175 141 53 45 125 99 161 121 36 21 107
67 158 102 111 77 400 205 567 251 61 17 180 53 265 80 189 61 305 83 615 122
132 16 285 39 340 49 55 11 141 25 190 31 50 6 160 24 245 40 187 36 320 56
500 76 74 8 187 23 250 34 63 10 167 26 230 35 200 28 434 83 835 196 77 21
201 48 275 59 206 31 350 70 645 174 149 52 275 95 280 95 7 1 10 -53 8 -161z"/>
</g>
</svg>
